<svg xmlns="http://www.w3.org/2000/svg" version="1.1" xmlns:xlink="http://www.w3.org/1999/xlink" xmlns:svgjs="http://svgjs.dev/svgjs" width="1000" height="1000" viewBox="0 0 1000 1000"><rect width="1000" height="1000" fill="#ffffff"></rect><g transform="matrix(0.7,0,0,0.7,150,106.25)"><svg viewBox="0 0 320 360" data-background-color="#111111" preserveAspectRatio="xMidYMid meet" height="1125" width="1000" xmlns="http://www.w3.org/2000/svg" xmlns:xlink="http://www.w3.org/1999/xlink"><g id="tight-bounds" transform="matrix(1,0,0,1,0,0)"><svg viewBox="0 0 320 360" height="360" width="320"><g><svg></svg></g><g><svg viewBox="0 0 320 360" height="360" width="320"><g><path xmlns="http://www.w3.org/2000/svg" d="M165.217 303.356c-1.404-1.755-2.809-0.702-2.808-1.755-8.426 2.106-24.223-3.511-30.894-2.809 1.404-2.106-2.106-1.755-2.106-3.159-1.404 2.106-2.809 0-4.915 0.702-2.106-5.266-10.532-1.404-11.585-8.075-4.915 0-6.67-2.809-11.586-5.617 0.351-0.351 0.702-0.351 1.054-0.702-2.457-0.351-2.457-1.755-4.564-1.755l0.702-1.405c-3.862-0.702-5.266-6.67-10.883-8.776-1.755-0.351-5.617-6.319-7.723-7.724-1.053-0.702-2.809-0.702-0.352-1.053-0.351-0.351-0.351-1.053 0-1.404-2.457-0.702-2.809-2.809-5.968-3.862-0.351-1.053 0.702-1.755 0-2.457-0.702-0.351-1.755 0.351-2.457 0-0.351 6.319 6.67 7.021 8.777 12.287-0.702-0.702-1.755-2.809-2.458-1.404-0.351 1.053 2.809 4.915 2.809 2.808-1.053 0.702-1.404-1.053-0.703-1.404 1.053 1.755 3.16 1.404 3.16 2.809-1.053 1.053-2.457-1.053-2.106 0.702 3.16 1.755 2.809 3.511 4.563 5.968-1.404-1.755-1.755 1.404-3.159 0-0.351-5.266-6.319-4.213-6.319-9.479-0.702-1.755-1.404-0.351-2.458-1.053 1.404-1.404-4.213-6.319-4.213-4.564-1.755-2.106-0.702-2.809-1.053-4.213-1.404-0.351-0.351 1.404-1.404 0.351 1.404-2.457-1.755-5.617-3.862-8.074l1.405-0.702c-2.457-1.404-2.809-4.213-4.564-7.373-2.106 3.16 4.213 10.181 3.159 11.585 0 0.351 2.457 3.16 3.16 4.564 2.809 4.915 4.915 10.883 8.777 13.692-0.702-0.351-0.351-2.457 0.702-1.404 0 1.053-0.702 2.106-0.702 3.159 2.106 2.106 3.862 3.862 5.968 5.968-4.564-2.809-9.128-5.617-12.288-9.83 1.755-0.351 3.511 2.809 4.915 2.458-3.511-2.809-2.457-3.862-3.861-7.372-1.404-1.053 0.351 1.404-1.054 1.755-4.564-4.213-8.075-6.67-10.181-10.532 0.351-0.351 0.702-0.702 0.703-1.404-0.351-0.351-0.351-0.351-0.703-0.702 2.106 2.106 2.809 3.862 5.266 4.212-1.053-1.053 0-1.404-1.404-2.457-0.702-1.404-1.755 0.702-2.457-0.351 0.702-1.053 0-2.457 0-3.511-0.702 0-1.404 0-1.756-1.053-0.702-0.351-1.053 0-1.404 0.702-0.351-0.351-0.351-1.053-0.702-1.404v-0.351c-0.351-0.351-0.702-1.053-1.053-1.405-2.809-7.372-4.564-17.202-8.426-23.521 1.053-4.213-0.702-12.638-1.755-14.745 1.053-1.755 0.351-9.83-0.351-11.234-1.755 0.702 0.351 4.564-1.404 5.617-1.755-7.723 1.053-16.5 0.351-23.521 0.702 0 1.404 0 1.404-0.351-1.053-1.053 0.702-3.16 0.351-5.617 1.404-3.16-3.16 4.564-3.16 7.723-0.351 0.702-1.755 0-1.404 1.756 0 2.457 0.702 7.372-0.702 10.883-0.702 0-0.702-0.702-1.404-0.351-0.351 1.755-0.702 3.862-1.053 5.617-0.351-0.702-0.702-1.755-0.703-2.107-1.755-8.777 0-18.958-0.702-26.33 1.404 0 1.404-2.106 2.458-2.808-0.351 2.809-1.053 6.319 0.702 7.021 1.404-13.692 4.213-28.787 10.532-43.532 4.564-10.883 11.234-21.766 19.308-30.543 0.702 1.053-0.351 3.511 0 4.564 7.021-7.372 11.585-16.149 19.309-21.064 0.351 1.755-3.16 3.16-3.16 4.564 3.16-3.16 4.213-2.106 7.724-3.159 1.053-1.404-1.404 0-1.756-1.405 2.106-1.404 3.511-3.16 4.915-4.212 0 0.351-0.351 0.351-0.351 0.702 3.862-1.053 4.213-3.16 7.022-3.862-0.351-0.351-1.053-0.702-2.107-0.351 0.702-0.351 1.755-1.053 2.809-1.404-0.351 0-0.351 0.351-0.702 0.351 2.106-1.053 0.351 0.351 0.351 1.053 0.351 0 0.702-0.351 0.702-0.351-2.106 1.404-3.511 2.106-4.213 4.564 1.053-0.702 1.404 0 2.809-1.054 1.404-0.702-0.351-1.755 0.702-2.457 1.053 0.702 2.457 0.351 3.51 0.351 0-0.702 0.351-1.404 1.054-1.755 0.351-0.702 0-1.053-0.352-1.053 0.351-0.351 0.702-0.351 1.405-0.703 0 0 0.351 0 0.351 0.351 5.968-2.809 12.638-5.266 18.957-7.372 3.862-0.351 8.777-0.351 10.883-2.808-0.702 0-1.404 0.351-1.755 0 0.351 0 1.053-0.351 1.404-0.351 0.702 0.702 1.755 0 0.702 1.404 0.351 0 0.351 0 0.703-0.351 0 0.351 0 0.351 0.351 0.702 0.351 0 0.702-0.351 1.053-1.053 0.351 0 0.702 0 1.053-0.351l-0.351 0.351c2.809-0.702 5.266-0.351 9.128-1.054 0-0.351 0-0.702 0-1.053 0.702 0 1.053-0.351 1.755-0.351v0.351c1.404-0.702 2.809 0.702 2.808 0 0.351 0 0.351 0 0.703 0 0 0.702-0.351 1.053-0.351 1.405 1.755 0 2.809 0 3.51-1.054-0.351-0.351-0.702-0.351-1.053-0.351 0.702 0 1.404-0.351 2.106-0.702 1.053 0.351 1.404 0.702 1.405 2.107 1.755-3.16 7.372 0.702 9.829 0 1.053 0 0.702-1.404 1.405-2.107 0.351 0 0.702 0 1.053 0 1.755 1.404 4.213 2.809 7.372 3.16-2.809-0.702 0.351-1.053 0.702-1.405-0.702 0-0.702-0.351-0.702-0.702 1.053 0 2.106 0.351 3.16 0.351 0 0.702 0.351 1.053 1.053 1.054 0.702 0 0.702-0.351 0.702-1.054 1.053 0 1.755 0 2.809 0.351-0.351 1.404 1.755 1.755 2.457 2.809-2.809-0.702-5.968-1.755-7.021 0 11.234 2.457 23.521 5.968 35.457 11.936 0 0 0 0 0 0.351h0.352c2.106 1.053 4.213 2.106 6.319 3.16 1.404 0.702 2.457 1.404 3.861 2.457 0 0.351 0 0.702 0.703 0.702h0.351c1.404 1.053 2.809 1.755 4.212 2.809 1.404 2.106 2.809 4.915 5.266 4.213 5.266 8.075 10.883 11.234 15.447 19.659 0.351-1.404 1.404 3.16 3.16 3.511-2.809-0.351 1.755 1.755-1.053 1.404 2.457 2.457 3.16 3.511 3.51 6.319-0.702-1.404-1.053-1.755-1.404-0.351-0.351 2.106 2.457-0.351 3.511 1.756-2.106 0-1.404 1.404-1.054 3.159 1.053-1.053 0.702-2.106 1.756-1.755 1.404 1.404-0.702 1.755-0.351 2.809 1.053-1.404 1.404-0.702 2.808 0-1.755 0.351 1.053 2.809-1.053 1.755 1.404 1.755 1.755 2.809 1.053 4.564-1.404-2.106-0.351-3.511-2.457-3.16 4.213 3.511 2.106 11.585 7.021 12.287-3.16 0.702 0 2.106-1.755 2.458 2.106 0.702 1.053 3.511 3.51 4.213-0.351 1.755-1.053 2.809-1.404 4.563 1.053 1.404 1.404 4.213 3.16 4.564-1.053 1.053-0.351 3.862-1.404 4.915 1.404-0.702 2.106-0.702 3.159 0.702-1.755 1.404-0.351 2.809-1.404 3.16 3.16 8.075-0.702 24.575 1.053 30.894-2.106-1.053-1.404 2.457-2.808 2.457 2.457 1.053 0.351 2.809 1.404 4.564-4.915 2.809 0 10.532-6.67 12.287 0.702 4.915-2.106 7.021-4.213 12.288-0.351-0.351-0.351-0.702-0.702-1.054-0.351 2.457-1.755 2.809-1.054 4.915l-1.404-0.702c0 3.862-5.968 5.968-7.372 11.936-0.351 1.755-5.617 6.319-7.022 8.777-0.702 1.053-0.351 2.809-1.053 0.351-0.351 0.351-1.053 0.351-1.404 0.351-0.351 2.457-2.457 3.16-3.16 6.319-0.702 0.351-1.755-0.702-2.457 0.351 0 0.702 0.702 1.755 0.351 2.458 6.319-0.351 6.319-7.723 11.234-10.181-0.351 1.053-2.457 2.106-1.053 2.808 1.053 0 4.213-3.511 2.457-3.159 1.053 0.702-1.053 1.404-1.404 1.053 1.755-1.404 1.053-3.16 2.458-3.511 1.053 0.702-1.053 2.457 1.053 2.107 1.404-3.16 3.16-3.511 5.266-5.266-1.404 1.404 1.755 1.755 0.351 3.159-5.266 1.053-3.511 7.021-8.777 7.724-1.404 1.053-0.351 1.404-0.702 2.457-1.755-1.053-5.617 4.915-4.213 4.564-1.755 1.755-2.809 1.053-4.212 1.404-0.351 1.404 1.404 0.351 0.702 1.405-2.457-1.053-5.617 2.457-7.724 4.915l-1.053-1.054c-1.053 2.809-3.862 3.16-7.021 5.266 3.511 1.755 9.479-5.617 11.234-4.564 0.351 0 3.16-2.809 4.213-3.861 4.564-3.511 10.181-6.319 12.287-10.181-0.351 0.702-2.457 0.702-1.404-0.351 1.053-0.351 2.106 0.351 3.159 0.351 5.617-7.723 12.638-14.043 17.905-23.17 0.351-0.351 0.702-1.053 1.053-1.756-0.702 2.106-1.755 3.862-2.458 5.968-5.617 3.862-7.723 15.096-14.393 16.851 0.351 3.862-3.16 4.915-4.915 9.479-1.053 1.404-1.755-1.053-2.809 0.702 1.053 4.915-8.777 4.564-8.425 9.128-0.702 0.351-1.755 0.702-2.458 1.404h-0.351c-0.351 0.351-0.351 0.351-0.702 0.702-1.755 1.053-3.16 2.106-4.564 3.16-4.915 2.809-11.585 4.915-16.851 7.723v-0.351c-1.404 0.702-3.16 0.351-2.809 1.756-1.053 0.702-2.106 1.404-3.159 2.106-0.351 0-0.351 0-0.702 0 0 0-0.351-0.351-0.702-0.351-0.702 0-0.702 0-1.054 0.351-4.564 0.351-10.532 2.457-12.287 3.862-1.755-1.053-9.83 0.702-11.234 1.404 0.702 1.053 2.809 0 4.564 0-1.053 0.351-2.106 0.702-2.458 1.404-0.351 0-0.351 0-0.702 0-0.351-1.053-1.404 0-1.755-0.351h0.351c-0.351-1.404-1.404-2.106-3.16-1.755 0 0.702 0 1.053-0.351 1.755 0.702 0 2.809-1.053 2.809 0-0.351 0-0.351 0.351 0 0.351-0.702 0.702-1.755 0.702-2.458 1.054-1.404 0-3.16 0-4.563 0-0.351-0.351-0.702-0.351-1.405-0.703-0.351 0.351-1.053 0.351-1.404 0.703-2.106 0-4.564 0.351-6.319 0.702 0-0.702 0-1.404-0.702-1.405-1.053 1.404-3.16-0.351-5.617 0.352-2.457-0.702 1.404 1.053 4.915 1.755-0.351 0.351-0.702 0.702-1.756 1.053M116.068 308.271c-4.915-4.564-15.096-6.67-16.851-10.181-2.809-0.351-7.021-5.617-10.532-6.319 1.755 0 0.351-1.053 0-1.755-0.702 0.702-1.404 1.053-2.106 1.053 0-2.809-2.809-4.564-5.266-6.319 1.755 1.053 3.16 1.755 5.266 2.106 0-0.702 0-1.404 0.702-1.404 2.457 2.457 5.266 4.915 8.425 7.372 4.213 3.862 25.979 13.692 29.841 15.447 0 0-0.702 1.404-0.351 1.404 1.755 1.053 3.16-1.053 3.511 1.404-5.617 0.702-7.723-3.16-12.639-2.808M277.909 226.824v0.351 0c-0.351 0 0-0.351 0-0.351M136.079 64.281c-0.351 0.351-0.702 0.351-0.702 0.351 0-0.351 0.351-0.351 0.702-0.351M129.409 66.036c0 0.351 0 0.351 0 0 0 0.351 0 0.351 0 0 0 0.351 0 0 0 0M106.238 73.408v0c0.351-0.351 0.351-0.351 0.703-0.351-0.351 0-0.702 0.351-0.703 0.351M162.409 61.823c-0.702 0-1.053 0-1.404-0.351 0.351 0 0.702 0 1.053 0h0.351c0 0 0 0 0 0.351M168.728 62.525c-0.351-0.351-1.404-0.702-2.457-0.702 0-0.351 0.351-0.702 0.351-0.702 0.351 0 0.702 0 1.053 0 0 0 0.351 0 0.351 0.351 0 0 0 0 0-0.351 0.351 0 0.351 0 0.702 0 0.351 0.702 0.702 1.053 0 1.404M180.313 63.579c-1.755 0.351-2.809-0.351-4.564-1.405 1.053 0 2.457 0.351 3.511 0.702 0.351 0 0.702 0.351 1.053 0.703M305.292 113.43c-0.702 0.351-1.053 0.351-1.755-1.053-5.617-11.936-15.798-29.138-30.543-43.532-14.394-14.745-33.702-26.681-51.255-33.001 1.053 0.351 2.457 1.053 1.755 1.756-15.447-5.968-30.192-9.479-44.234-10.883-37.915-5.968-77.585 2.106-108.128 21.766 0.351 0.702 0.351 1.053-0.702 1.755-11.234 7.021-27.032 19.309-39.671 35.458-12.638 16.149-22.468 36.511-26.681 54.766 0.351-1.053 0.702-2.809 1.405-2.107-9.128 36.16-6.67 67.053 5.968 93.735 0.702-0.702-1.755-4.213 0.351-3.862 1.404 3.862 3.16 8.075 5.266 11.936 2.457 5.617 5.266 12.989 9.128 14.745-9.83-19.309-16.5-41.426-17.203-61.085 1.404 2.809 1.053 8.777 3.16 11.234 0.702-13.34-2.457-31.245 2.106-43.883-1.053 6.67-1.755 15.798-1.053 24.925 0 6.67 3.16 25.277 5.266 27.032-0.351-0.351-0.351-2.106 0-2.106 1.053 2.106-1.404 3.16 0.351 3.511 0-0.702 0.351-0.702 0.702-0.703 3.511 7.723 8.075 19.66 11.585 25.628 4.213 7.723 9.83 14.745 16.149 21.064 0 0.351 0.351 0.351 0.352 0.702 0.702 1.755 3.16 3.862 3.861 5.266 0.351 0.702-0.351 1.755 0 2.458 5.266 9.83 12.989 19.66 22.468 27.383 5.968 7.021 15.447 14.394 27.032 20.713 11.234 5.968 24.223 10.883 36.16 13.691 8.426 2.106 18.606 2.457 24.926 3.862 8.426 1.755 23.17-0.702 30.542-2.107 44.234-6.67 88.117-36.862 110.235-80.393 22.819-43.883 22.117-97.596 2.457-138.671" fill="#000000" fill-rule="nonzero" stroke="none" stroke-width="1" stroke-linecap="butt" stroke-linejoin="miter" stroke-miterlimit="10" stroke-dasharray="" stroke-dashoffset="0" font-family="none" font-weight="none" font-size="none" text-anchor="none" style="mix-blend-mode: normal" data-fill-palette-color="tertiary"></path></g><g transform="matrix(1,0,0,1,80,132.17591578088422)"><svg viewBox="0 0 160 95.64816843823152" height="95.64816843823152" width="160"><g><svg viewBox="0 0 160 95.64816843823152" height="95.64816843823152" width="160"><g><svg viewBox="0 0 160 95.64816843823152" height="95.64816843823152" width="160"><g><svg viewBox="0 0 160 95.64816843823152" height="95.64816843823152" width="160"><g id="textblocktransform"><svg viewBox="0 0 160 95.64816843823152" height="95.64816843823152" width="160" id="textblock"><g><svg viewBox="0 0 160 51.77225340817963" height="51.77225340817963" width="160"><g transform="matrix(1,0,0,1,0,0)"><svg width="160" viewBox="-0.6500000357627869 -36 124.69000244140625 40.349998474121094" height="51.77225340817963" data-palette-color="#ffffff"><path d="M-0.65 4.35L-0.65 4.35Q-0.35 3.65 0.95 0.78 2.25-2.1 4.4-6.78 6.55-11.45 9.3-17.55 12.05-23.65 15.25-30.75L15.25-30.75Q15.45-31.15 15.6-31.68 15.75-32.2 15.75-32.7L15.75-32.7Q15.75-33.2 15.43-33.55 15.1-33.9 14.15-33.9L14.15-33.9Q12.05-33.9 10.68-32.52 9.3-31.15 8.65-29.15 8-27.15 8-25.15L8-25.15Q8-24.7 8.03-24.25 8.05-23.8 8.15-23.35L8.15-23.35Q7.1-23.35 6.45-24.03 5.8-24.7 5.5-25.73 5.2-26.75 5.2-27.6L5.2-27.6Q5.2-29.2 6.1-30.7 7-32.2 8.45-33.43 9.9-34.65 11.65-35.33 13.4-36 15.1-36L15.1-36Q16.85-36 18.03-35.05 19.2-34.1 19.83-31.6 20.45-29.1 20.45-24.4L20.45-24.4Q20.45-21.25 20.23-17.8 20-14.35 19.75-11.13 19.5-7.9 19.4-5.35L19.4-5.35Q20.3-8.35 21.78-11.78 23.25-15.2 25-18.57 26.75-21.95 28.45-24.9 30.15-27.85 31.53-30.05 32.9-32.25 33.6-33.25L33.6-33.25Q34.3-34.3 34.8-34.83 35.3-35.35 36.15-35.35L36.15-35.35Q36.85-35.35 37.95-34.95L37.95-34.95Q37.6-34.05 36.98-32.18 36.35-30.3 35.7-27.65L35.7-27.65Q34.9-24.65 34.13-20.88 33.35-17.1 32.7-13.2 32.05-9.3 31.65-5.88 31.25-2.45 31.25 0L31.25 0Q31.25 1.15 31.35 1.8 31.45 2.45 31.65 2.98 31.85 3.5 32.1 4.35L32.1 4.35Q30.25 4.35 29.28 3.78 28.3 3.2 27.98 1.9 27.65 0.6 27.65-1.55L27.65-1.55Q27.65-7.35 29.08-13.95 30.5-20.55 32.4-27.6L32.4-27.6Q30.95-25.7 29.4-22.9 27.85-20.1 26.33-16.9 24.8-13.7 23.4-10.53 22-7.35 20.95-4.65 19.9-1.95 19.3-0.15L19.3-0.15Q18.95-0.05 18.82 0 18.7 0.05 18.45 0.05L18.45 0.05Q16.95 0.05 16.53-1.73 16.1-3.5 16.1-6.65L16.1-6.65Q16.1-8.65 16.2-11.28 16.3-13.9 16.43-16.68 16.55-19.45 16.65-22.08 16.75-24.7 16.75-26.75L16.75-26.75Q16.75-27.65 16.73-28.33 16.7-29 16.65-29.6L16.65-29.6Q12.75-20.45 10.08-13.98 7.4-7.5 5.55-3.45 3.7 0.6 2.25 2.48 0.8 4.35-0.65 4.35ZM40.85 1.6L40.85 1.6Q38.65 1.6 37.77 0.23 36.9-1.15 36.9-3L36.9-3Q36.9-4.55 37.4-6.23 37.9-7.9 38.75-9.35 39.6-10.8 40.65-11.68 41.7-12.55 42.75-12.55L42.75-12.55Q43.05-12.55 43.37-12.48 43.7-12.4 43.95-12.25L43.95-12.25Q43.45-11.7 42.82-10.63 42.2-9.55 41.65-8.22 41.1-6.9 40.75-5.58 40.4-4.25 40.4-3.3L40.4-3.3Q40.4-1.95 40.87-1.28 41.35-0.6 42.2-0.6L42.2-0.6Q43.2-0.6 44.6-1.73 46-2.85 47.35-4.45L47.35-4.45Q45.9-5.7 45.15-7.53 44.4-9.35 44.4-11.5L44.4-11.5Q44.4-12.95 44.95-14.35 45.5-15.75 46.62-16.68 47.75-17.6 49.45-17.6L49.45-17.6Q51.55-17.6 52.3-16.48 53.05-15.35 53.05-13.7L53.05-13.7Q53.05-11.75 52.1-9.4 51.15-7.05 49.7-4.9L49.7-4.9Q50.5-4.5 51.45-4.5L51.45-4.5Q52.25-4.5 53.25-4.83 54.25-5.15 55.25-5.95 56.25-6.75 56.85-8.15L56.85-8.15 57.55-7.6Q56.5-5.15 54.67-4.13 52.85-3.1 51.15-3.1L51.15-3.1Q50.5-3.1 49.9-3.23 49.3-3.35 48.75-3.55L48.75-3.55Q47.05-1.4 44.95 0.1 42.85 1.6 40.85 1.6ZM48.4-5.85L48.4-5.85Q49.6-7.7 50.45-9.7 51.3-11.7 51.3-13.5L51.3-13.5Q51.3-14.85 50.9-15.48 50.5-16.1 49.8-16.1L49.8-16.1Q48.85-16.1 47.8-14.68 46.75-13.25 46.75-11.1L46.75-11.1Q46.75-9.8 47.17-8.3 47.6-6.8 48.4-5.85ZM59.2 1.95L59.2 1.95Q57.55 1.95 56.9 0.38 56.25-1.2 56.25-3.7L56.25-3.7Q56.25-3.95 56.3-5.43 56.35-6.9 56.55-10.05L56.55-10.05Q56.6-11.45 56.82-11.98 57.05-12.5 58.25-12.5L58.25-12.5Q59.2-12.5 59.42-12.13 59.65-11.75 59.65-10.65L59.65-10.65Q59.65-9.05 59.45-7 59.25-4.95 59.25-3.1L59.25-3.1Q59.25-1.6 59.47-0.93 59.7-0.25 60.35-0.25L60.35-0.25Q61.25-0.25 62.32-1.25 63.4-2.25 64.52-3.88 65.65-5.5 66.65-7.35 67.65-9.2 68.45-10.95L68.45-10.95Q68.55-14.35 69.2-15.48 69.85-16.6 70.85-16.6L70.85-16.6Q71.9-16.6 72.32-15.88 72.75-15.15 72.75-14.6L72.75-14.6Q72.75-13.9 72.35-13.25 71.95-12.6 71.5-11.45 71.05-10.3 71.05-8.05L71.05-8.05Q71.05-7.3 71.2-6.43 71.35-5.55 71.85-4.95 72.35-4.35 73.35-4.35L73.35-4.35Q74.4-4.35 75.35-5.18 76.3-6 77.3-8.05L77.3-8.05 77.9-7.6Q76.8-5 75.42-4.08 74.05-3.15 72.85-3.15L72.85-3.15Q71.2-3.15 70.12-4.38 69.05-5.6 68.6-7.9L68.6-7.9Q67.4-5.55 65.82-3.3 64.25-1.05 62.52 0.45 60.8 1.95 59.2 1.95ZM79.94 1.35L79.94 1.35Q77.89 1.35 76.89 0.1 75.89-1.15 75.89-2.9L75.89-2.9Q75.89-4.05 76.32-5.8 76.74-7.55 77.44-9.47 78.14-11.4 79.07-13.1 79.99-14.8 81.07-15.88 82.14-16.95 83.19-16.95L83.19-16.95Q83.69-16.95 84.04-16.65 84.39-16.35 84.39-15.75L84.39-15.75Q84.39-15.15 83.62-13.8 82.84-12.45 81.82-10.73 80.79-9 80.02-7.1 79.24-5.2 79.24-3.5L79.24-3.5Q79.24-1.75 79.82-1.18 80.39-0.6 81.59-0.6L81.59-0.6Q83.29-0.6 85.24-2.3 87.19-4 89.34-8.25L89.34-8.25 89.89-7.65Q88.34-3.35 85.64-1 82.94 1.35 79.94 1.35ZM85.89-21.4L85.89-21.4Q85.04-21.4 84.37-21.83 83.69-22.25 83.69-23.15L83.69-23.15Q83.69-24.25 84.94-25.05 86.19-25.85 87.44-25.85L87.44-25.85Q88.24-25.85 88.77-25.5 89.29-25.15 89.29-24.2L89.29-24.2Q89.29-23.25 88.22-22.33 87.14-21.4 85.89-21.4ZM93.84 2.2L93.84 2.2Q90.74 2.2 89.14 0.5 87.54-1.2 87.54-3.7L87.54-3.7Q87.54-5.9 88.67-8.4 89.79-10.9 91.67-13.1 93.54-15.3 95.82-16.65 98.09-18 100.34-18L100.34-18Q101.54-18 102.57-17.38 103.59-16.75 103.59-14.85L103.59-14.85Q103.59-12.95 102.49-11.3 101.39-9.65 99.54-8.35 97.69-7.05 95.52-6.23 93.34-5.4 91.14-5.15L91.14-5.15Q91.04-4.75 91.02-4.38 90.99-4 90.99-3.6L90.99-3.6Q90.99-3 91.12-2.3 91.24-1.6 91.67-0.95 92.09-0.3 92.87 0.1 93.64 0.5 94.89 0.5L94.89 0.5Q97.04 0.5 99.14-0.7 101.24-1.9 103.07-3.88 104.89-5.85 106.14-8.25L106.14-8.25 106.89-7.7Q105.54-4.7 103.44-2.48 101.34-0.25 98.87 0.98 96.39 2.2 93.84 2.2ZM91.49-6.4L91.49-6.4Q92.84-6.75 94.49-7.6 96.14-8.45 97.69-9.63 99.24-10.8 100.24-12.23 101.24-13.65 101.24-15.2L101.24-15.2Q101.24-15.75 101.04-16 100.84-16.25 100.24-16.25L100.24-16.25Q99.09-16.25 97.77-15.38 96.44-14.5 95.22-13.05 93.99-11.6 92.99-9.88 91.99-8.15 91.49-6.4ZM110.54 2.55L110.54 2.55Q108.14 2.55 106.71 1.53 105.29 0.5 104.69-1.03 104.09-2.55 104.09-4.1L104.09-4.1Q104.09-5.6 104.49-6.4 104.89-7.2 105.46-7.58 106.04-7.95 106.56-8.15 107.09-8.35 107.34-8.6L107.34-8.6Q108.74-10.1 110.01-11.88 111.29-13.65 112.24-15.7L112.24-15.7 112.24-16.25Q112.24-18.15 112.89-18.95 113.54-19.75 114.29-19.75L114.29-19.75Q114.74-19.75 114.96-19.53 115.19-19.3 115.24-19L115.24-19Q115.24-18.7 115.09-18.2 114.94-17.7 114.94-16.9L114.94-16.9Q114.94-15.3 115.61-13.38 116.29-11.45 116.96-9.33 117.64-7.2 117.64-4.9L117.64-4.9Q117.64-4.3 117.56-3.7 117.49-3.1 117.39-2.6L117.39-2.6Q119.04-2.95 120.59-4.23 122.14-5.5 123.54-8.25L123.54-8.25 124.04-7.75Q123.09-5 121.21-3.48 119.34-1.95 117.04-1.55L117.04-1.55Q116.24 0.55 114.49 1.55 112.74 2.55 110.54 2.55ZM110.49 0.65L110.49 0.65Q111.24 0.65 112.19 0.23 113.14-0.2 113.64-1.65L113.64-1.65Q111.59-2.05 109.94-3.28 108.29-4.5 107.49-5.7L107.49-5.7Q106.49-5.65 106.49-4.1L106.49-4.1Q106.49-2.35 107.54-0.85 108.59 0.65 110.49 0.65ZM113.94-2.65L113.94-2.65Q114.04-3.1 114.09-3.63 114.14-4.15 114.14-4.75L114.14-4.75Q114.14-7.05 113.56-9.35 112.99-11.65 112.54-13.75L112.54-13.75Q111.49-12 110.24-10.25 108.99-8.5 107.84-7.35L107.84-7.35Q108.64-5.85 110.19-4.5 111.74-3.15 113.94-2.65Z" opacity="1" transform="matrix(1,0,0,1,0,0)" fill="#000000" class="wordmark-text-0" data-fill-palette-color="primary" id="text-0"></path></svg></g></svg></g><g transform="matrix(1,0,0,1,0,63.99443990376905)"><svg viewBox="0 0 160 31.653728534462477" height="31.653728534462477" width="160"><g transform="matrix(1,0,0,1,0,0)"><svg width="160" viewBox="5.050000190734863 -32.400001525878906 212.52999877929688 42.05000305175781" height="31.653728534462477" data-palette-color="#00d1cd"><path d="M13.55-32Q18.1-32 20.55-29.63 23-27.25 23-22.85L23-22.85Q23-17.65 20.03-14.73 17.05-11.8 11.65-11.8L11.65-11.8 7.55-11.8 7.55-9.85 7.65 0 5.05 0 5.2-9.7 5.05-31.95 13.55-32ZM13.15-14Q16.65-14.45 18.5-16.7 20.35-18.95 20.35-22.65L20.35-22.65Q20.35-26.1 18.53-27.9 16.7-29.7 13.25-29.8L13.25-29.8 7.7-29.7 7.6-14.1 13.15-14ZM34.95-23.1Q38-23.1 39.7-21.55 41.4-20 41.4-17.25L41.4-17.25Q41.4-16.2 41.3-14.48 41.2-12.75 41.15-10.8L41.15-10.8Q40.85-5.1 40.85-4.35L40.85-4.35Q40.85-3.05 41.22-2.53 41.6-2 42.5-2L42.5-2Q43.4-2 44.4-2.5L44.4-2.5 44.75-2.25 44.45-0.6Q43.25 0.15 41.9 0.2L41.9 0.2Q38.9 0.1 38.75-3.55L38.75-3.55 38.5-3.55Q35.65-0.3 32.6 0.3L32.6 0.3Q29.6 0.3 27.9-1.28 26.2-2.85 26.2-5.65L26.2-5.65Q26.2-9.7 30.6-10.7L30.6-10.7 38.9-12.65 39-16.7Q39-18.85 37.85-19.98 36.7-21.1 34.6-21.1L34.6-21.1Q31.4-21.1 27.6-17.85L27.6-17.85 27.3-18 26.9-19.85Q31-23.1 34.95-23.1L34.95-23.1ZM38.85-10.8L31.1-8.95Q28.55-8.35 28.55-5.95L28.55-5.95Q28.55-4.05 29.6-2.98 30.65-1.9 32.5-1.9L32.5-1.9Q34-1.9 35.57-2.95 37.15-4 38.65-5.95L38.65-5.95 38.85-10.8ZM54.1-22.85L54.2-22.75 54.05-9.9 54.15-0.8Q54.15 3.1 52.87 5.35 51.6 7.6 48.3 9.65L48.3 9.65 47.3 8.45 47.3 8.1Q49.8 6.35 50.77 4.48 51.75 2.6 51.75-0.6L51.75-0.6 51.8-9.75 51.7-20.85 47.25-20.85 47-21.15 47.2-22.7 51.65-22.7 54.1-22.85ZM52.2-32.4Q53-32.4 53.42-31.95 53.85-31.5 53.85-30.75L53.85-30.75Q53.85-29.95 53.4-29.48 52.95-29 52.15-29L52.15-29Q51.35-29 50.92-29.43 50.5-29.85 50.5-30.65L50.5-30.65Q50.5-31.45 50.95-31.93 51.4-32.4 52.2-32.4L52.2-32.4ZM68.59-23Q71.24-23 73.74-21.95L73.74-21.95 73.34-19.8 72.89-19.7Q70.54-21.05 68.34-21.05L68.34-21.05Q66.29-21.05 64.99-19.9 63.69-18.75 63.69-17.1L63.69-17.1Q63.69-15.5 64.89-14.58 66.09-13.65 68.54-12.55L68.54-12.55Q70.54-11.6 71.67-10.9 72.79-10.2 73.62-9.05 74.44-7.9 74.44-6.25L74.44-6.25Q74.44-4.5 73.52-3 72.59-1.5 70.84-0.6 69.09 0.3 66.79 0.3L66.79 0.3Q63.44 0.3 60.54-1.35L60.54-1.35 60.89-3.6 61.24-3.8Q62.49-2.75 64.02-2.2 65.54-1.65 66.94-1.65L66.94-1.65Q69.24-1.65 70.64-2.9 72.04-4.15 72.04-5.85L72.04-5.85Q72.04-7.4 70.89-8.33 69.74-9.25 67.29-10.4L67.29-10.4Q65.34-11.3 64.14-12.05 62.94-12.8 62.12-14 61.29-15.2 61.29-16.9L61.29-16.9Q61.29-19.55 63.29-21.28 65.29-23 68.59-23L68.59-23ZM118.04-31.95L121.29 0 118.89 0 118.04-9.75 116.09-27.45 115.79-27.45 106.04-3.85 103.69-3.85 94.29-27.45 93.99-27.45 92.04-9.9 91.09 0 88.79 0 92.24-31.95 95.19-31.95 96.99-27.05 104.84-7.3 105.09-7.3 113.39-27.45 115.09-31.95 118.04-31.95ZM135.94-23.1Q140.44-23.1 142.96-20.08 145.49-17.05 145.49-11.65L145.49-11.65Q145.49-6 142.84-2.85 140.19 0.3 135.49 0.3L135.49 0.3Q130.99 0.3 128.49-2.73 125.99-5.75 125.99-11.1L125.99-11.1Q125.99-16.75 128.61-19.93 131.24-23.1 135.94-23.1L135.94-23.1ZM135.84-21.15Q132.34-21.15 130.39-18.65 128.44-16.15 128.44-11.6L128.44-11.6Q128.44-6.8 130.31-4.23 132.19-1.65 135.59-1.65L135.59-1.65Q139.14-1.65 141.09-4.13 143.04-6.6 143.04-11.15L143.04-11.15Q143.04-15.95 141.14-18.55 139.24-21.15 135.84-21.15L135.84-21.15ZM150.58-22.9L151.23-20.2 156.93-2.85 157.18-2.85 163.83-20.1 164.58-22.75 167.03-22.75 158.28 0 155.53 0 148.13-22.65 150.58-22.9ZM171.93 0L172.03-9.75 171.98-22.55 174.48-22.85 174.43-9.9 174.48 0 171.93 0ZM173.23-32.4Q174.03-32.4 174.46-31.95 174.88-31.5 174.88-30.75L174.88-30.75Q174.88-29.95 174.43-29.48 173.98-29 173.18-29L173.18-29Q172.38-29 171.96-29.43 171.53-29.85 171.53-30.65L171.53-30.65Q171.53-31.45 171.98-31.93 172.43-32.4 173.23-32.4L173.23-32.4ZM191.38-23.1Q195.13-23.1 197.2-20.88 199.28-18.65 199.28-14.65L199.28-14.65Q199.28-13.65 199.13-12.6L199.13-12.6 198.73-12.15 183.93-12.05 183.93-11.3Q183.93-6.85 185.95-4.35 187.98-1.85 191.63-1.85L191.63-1.85Q193.43-1.85 195.18-2.43 196.93-3 198.28-4L198.28-4 198.63-3.8 198.28-1.55Q195.03 0.3 191.33 0.3L191.33 0.3Q186.78 0.3 184.15-2.78 181.53-5.85 181.53-11.2L181.53-11.2Q181.53-14.8 182.73-17.5 183.93-20.2 186.18-21.65 188.43-23.1 191.38-23.1L191.38-23.1ZM196.78-14.15L196.88-15Q196.88-17.9 195.43-19.53 193.98-21.15 191.33-21.15L191.33-21.15Q188.48-21.15 186.58-19.23 184.68-17.3 184.13-13.95L184.13-13.95 196.78-14.15ZM211.73-23Q214.38-23 216.88-21.95L216.88-21.95 216.48-19.8 216.03-19.7Q213.68-21.05 211.48-21.05L211.48-21.05Q209.43-21.05 208.13-19.9 206.83-18.75 206.83-17.1L206.83-17.1Q206.83-15.5 208.03-14.58 209.23-13.65 211.68-12.55L211.68-12.55Q213.68-11.6 214.8-10.9 215.93-10.2 216.75-9.05 217.58-7.9 217.58-6.25L217.58-6.25Q217.58-4.5 216.65-3 215.73-1.5 213.98-0.6 212.23 0.3 209.93 0.3L209.93 0.3Q206.58 0.3 203.68-1.35L203.68-1.35 204.03-3.6 204.38-3.8Q205.63-2.75 207.15-2.2 208.68-1.65 210.08-1.65L210.08-1.65Q212.38-1.65 213.78-2.9 215.18-4.15 215.18-5.85L215.18-5.85Q215.18-7.4 214.03-8.33 212.88-9.25 210.43-10.4L210.43-10.4Q208.48-11.3 207.28-12.05 206.08-12.8 205.25-14 204.43-15.2 204.43-16.9L204.43-16.9Q204.43-19.55 206.43-21.28 208.43-23 211.73-23L211.73-23Z" opacity="1" transform="matrix(1,0,0,1,0,0)" fill="#000000" class="slogan-text-1" data-fill-palette-color="secondary" id="text-1"></path></svg></g></svg></g></svg></g></svg></g></svg></g></svg></g></svg></g></svg></g><defs></defs></svg><rect width="320" height="360" fill="none" stroke="none" visibility="hidden"></rect></g></svg></g></svg>